<svg xmlns="http://www.w3.org/2000/svg" viewBox="0 0 136.396 88.595">
    <defs>
        <style>
            .cls-1{clip-path:url(#clip-path)}.cls-2{fill:#f58025}.cls-3{fill:#fff}
        </style>
        <clipPath id="clip-path">
            <path id="Rectangle_1370" d="M0 0h136.396v88.595H0z" data-name="Rectangle 1370"/>
        </clipPath>
    </defs>
    <g id="Group_2931" data-name="Group 2931">
        <g id="Group_2904" class="cls-1" data-name="Group 2904">
            <path id="Path_399" d="M210.271 21.2h.032c1.76-.032 4.927 2.656 8.351 5.471a5.832 5.832 0 0 0 .224-.8 7.427 7.427 0 0 0 .222-1.471 5.666 5.666 0 0 0 .032-.736 5.666 5.666 0 0 0-.032-.736 10.86 10.86 0 0 0-.224-1.472 14.135 14.135 0 0 0-.48-1.536 8.164 8.164 0 0 0-.8-1.472 8.839 8.839 0 0 0-1.184-1.472 8.975 8.975 0 0 0-1.824-1.472 9.666 9.666 0 0 0-10.047 0 8.974 8.974 0 0 0-1.824 1.472 10.371 10.371 0 0 0-1.184 1.472 13.094 13.094 0 0 0-.8 1.472 7.815 7.815 0 0 0-.48 1.536 7.429 7.429 0 0 0-.224 1.472 5.666 5.666 0 0 0-.032.736 5.425 5.425 0 0 0 .032.736 1.2 1.2 0 0 0 .032.32 50.55 50.55 0 0 1 8.735-3.3l-1.568 6.527a7.381 7.381 0 0 1-2.688 3.871 10.2 10.2 0 0 0 2.912 1.216z" class="cls-2" data-name="Path 399" transform="translate(-136.009 -9.589)"/>
        </g>
        <g id="Group_2905" class="cls-1" data-name="Group 2905">
            <path id="Path_400" d="M49.8 1.472h54.68A7.419 7.419 0 0 0 100.033 0H50.152z" class="cls-3" data-name="Path 400" transform="translate(-33.866)"/>
        </g>
        <g id="Group_2906" class="cls-1" data-name="Group 2906">
            <path id="Path_401" d="M105.32 10.772a6.827 6.827 0 0 0-.864-1.472h-56.5l-.356 1.472z" class="cls-3" data-name="Path 401" transform="translate(-32.37 -6.324)"/>
        </g>
        <g id="Group_2907" class="cls-1" data-name="Group 2907">
            <path id="Path_402" d="M99.308 18.5H45.652l-.352 1.472h52.185a8.974 8.974 0 0 1 1.823-1.472" class="cls-3" data-name="Path 402" transform="translate(-30.806 -12.581)"/>
        </g>
        <g id="Group_2908" class="cls-1" data-name="Group 2908">
            <path id="Path_403" d="M166.5 29.172a8.162 8.162 0 0 1 .8-1.472h-17.248l-.352 1.472z" class="cls-3" data-name="Path 403" transform="translate(-101.803 -18.837)"/>
        </g>
        <g id="Group_2909" class="cls-1" data-name="Group 2909">
            <path id="Path_404" d="M43.452 27.7l-.352 1.472h25.212l.352-1.472z" class="cls-3" data-name="Path 404" transform="translate(-29.31 -18.837)"/>
        </g>
        <g id="Group_2910" class="cls-1" data-name="Group 2910">
            <path id="Path_405" d="M72.783 37.032h-16.7L55.73 38.5h16.83a7.428 7.428 0 0 1 .224-1.472m-25.6 0H21.975l-.352 1.472h25.212zM72.559 40.3c0-.1-.032-.192-.032-.32H21.271l-.352 1.472H70.1c-1.056.512-2.112.992-3.1 1.472H20.535l-.352 1.472h25.34c-1.056.384-2.368.928-4.031 1.5H19.8l-.352 1.5h17.021a56.7 56.7 0 0 1-13.95 1.472H19.1l-6.5 26.686 53.5.032a7.43 7.43 0 0 0 7.327-6.239l3.04-12.51c.032-.32.064-.64.064-.96a7.42 7.42 0 0 0-5.5-7.167 8.748 8.748 0 0 0 1.6.16 7.254 7.254 0 0 0 4.408-1.47 7.381 7.381 0 0 0 2.688-3.871L81.294 37a50.551 50.551 0 0 0-8.735 3.3M48.915 66.628h-8.927l1.792-7.391h8.895zm10.91-20.7h-1.12a55.7 55.7 0 0 1-9.151-1.5h14.3a15.069 15.069 0 0 1-4.031 1.5" class="cls-3" data-name="Path 405" transform="translate(-8.569 -25.162)"/>
        </g>
        <g id="Group_2911" class="cls-1" data-name="Group 2911">
            <path id="Path_406" d="M240.167 0h-25.245l-.352 1.472h25.244zm8.863 0l-.352 1.472h25.18L274.21 0zm-1.056 4.447h25.18l.352-1.472h-25.18zm-8.543-1.5h-25.245l-.352 1.472h25.244zm-.7 2.976h-22.3a8.974 8.974 0 0 1 1.824 1.472h20.093zm8.543 1.472h25.18l.352-1.472h-25.18zm-9.279 1.472h-18.561a13.091 13.091 0 0 1 .8 1.472h17.405zm8.543 1.472h25.18l.352-1.472h-25.18zm-9.638 3.003l.352-1.472h-16.539a7.427 7.427 0 0 1 .224 1.472zm8.927 0h25.18l.352-1.472h-25.18zm-25.116 2.944h49.561l.352-1.472h-49.687a7.083 7.083 0 0 1-.224 1.472m-.224.8c-3.424-2.848-6.559-5.5-8.351-5.471h-.032l-2.88 11.838-6.526 26.972h25.212l3.967-16.286h8.927l-3.935 16.286h25.18l5.759-23.709h-1.344a17.364 17.364 0 0 1-6.239-1.472h7.935l.352-1.472h-11.23c-1.024-.544-1.984-1.024-2.848-1.472h14.43l.352-1.472h-17.693a23.857 23.857 0 0 0-3.615-1.5h21.69l.352-1.472h-48.631a6.228 6.228 0 0 0-.832-.768m10.335 6.623a10.238 10.238 0 0 1-3.52-1.472h9.279a22.4 22.4 0 0 1-5.759 1.472m14.4-4.447a46.359 46.359 0 0 0-4.543 1.5h-15.55a90.99 90.99 0 0 1-1.952-1.5z" class="cls-3" data-name="Path 406" transform="translate(-137.845)"/>
        </g>
        <g id="Group_2912" class="cls-1" data-name="Group 2912">
            <path id="Path_407" d="M395.584 150.6h-1.856l-.128.512h.64l-.448 1.728h.544l.48-1.728h.64z" class="cls-3" data-name="Path 407" transform="translate(-267.666 -102.415)"/>
        </g>
        <g id="Group_2913" class="cls-1" data-name="Group 2913">
            <path id="Path_408" d="M398.7 152.84h.512l.448-1.7.032 1.7h.416l.9-1.7-.448 1.7h.512l.608-2.24h-.832l-.768 1.5.032-1.5h-.832z" class="cls-3" data-name="Path 408" transform="translate(-271.134 -102.415)"/>
        </g>
        <g id="Group_2914" class="cls-1" data-name="Group 2914">
            <path id="Path_409" d="M11.39 170.347c.832-2.272-.192-3.647-2.752-3.647H3.36L0 179.114h5.439a4.635 4.635 0 0 0 4.575-2.656c.864-1.824.512-3.072-.416-3.615a1.586 1.586 0 0 0-.832-.256 3.813 3.813 0 0 0 1.76-.96 3.774 3.774 0 0 0 .864-1.28m-4.511 4.639a2.637 2.637 0 0 1-.192.608 1.7 1.7 0 0 1-1.536 1.184h-.928l.832-3.04h.832c.7-.032 1.12.416.992 1.248m.864-4.319a.763.763 0 0 1-.192.352 1.378 1.378 0 0 1-1.184.576h-.736l.672-2.5h.64c.864 0 1.216.512.8 1.568" class="cls-3" data-name="Path 409" transform="translate(0 -113.364)"/>
        </g>
        <g id="Group_2915" class="cls-1" data-name="Group 2915">
            <path id="Path_410" d="M34.16 166.7l-3.36 12.414h3.36l3.36-12.414z" class="cls-3" data-name="Path 410" transform="translate(-20.945 -113.364)"/>
        </g>
        <g id="Group_2916" class="cls-1" data-name="Group 2916">
            <path id="Path_411" d="M50.833 175.592a4.2 4.2 0 0 0-4.063 3.072h3.1s.1-.384.16-.416a1.027 1.027 0 0 1 .928-.832c.7-.064.96.256.8.928-.128.512-.352.768-1.088.9l-2.048.448a3.148 3.148 0 0 0-.512.16 3.309 3.309 0 0 0-2.592 2.656c-.064.288-.128.544-.16.8-.16 1.472.736 2.24 2.656 2.016a3.255 3.255 0 0 0 1.7-.7 1.714 1.714 0 0 0 .48-.48l-.032.16-.032.256-.032.256v.224l.032.128h3.17a3.074 3.074 0 0 1 .032-.928l.032-.256.064-.224 1.44-5.279c.544-2.24-.416-3.168-4.031-2.88m0 6.047c-.288.992-.64 1.44-1.152 1.568-.608.16-1.024-.16-.96-.672a1.137 1.137 0 0 1 .064-.32 1.523 1.523 0 0 1 .96-1.12c.064 0 .1-.064.16-.064l1.248-.448z" class="cls-3" data-name="Path 411" transform="translate(-30.835 -119.376)"/>
        </g>
        <g id="Group_2917" class="cls-1" data-name="Group 2917">
            <path id="Path_412" d="M82.471 180.894H79.4l-.032.128-.128.512c-.256.832-.544 1.184-.928 1.376-.544.288-1.056.032-1.088-.448a5.221 5.221 0 0 1 .384-2.176c.608-2.272.864-2.72 1.408-3.008a.668.668 0 0 1 1.056.288c.064.16.064.288-.032.768-.032.128-.032.224-.064.32l-.064.352h3.1a1.129 1.129 0 0 0 .1-.448c.512-2.72-.48-3.711-4.191-3.328-2.24.224-3.775 1.6-4.735 5.023-1.024 3.807.256 5.183 4.255 4.671a4.442 4.442 0 0 0 3.839-3.232 7.251 7.251 0 0 1 .192-.8" class="cls-3" data-name="Path 412" transform="translate(-50.219 -119.111)"/>
        </g>
        <g id="Group_2918" class="cls-1" data-name="Group 2918">
            <path id="Path_413" d="M106.975 169.8l-2.752 3.072 1.7-6.175h-3.392L99.2 179.114h3.36l.64-2.432.736-.8.832 3.232h3.679l-1.664-5.5 3.807-3.807z" class="cls-3" data-name="Path 413" transform="translate(-67.461 -113.364)"/>
        </g>
        <g id="Group_2919" class="cls-1" data-name="Group 2919">
            <path id="Path_414" d="M149.227 166.7l-1.248 4.671h-2.016l1.248-4.671h-3.551l-3.36 12.414h3.551l1.376-5.023h2.016l-1.376 5.023h3.583l3.328-12.414z" class="cls-3" data-name="Path 414" transform="translate(-95.41 -113.364)"/>
        </g>
        <g id="Group_2920" class="cls-1" data-name="Group 2920">
            <path id="Path_415" d="M183.292 169.068l.608-2.368h-3.36l-.64 2.368z" class="cls-3" data-name="Path 415" transform="translate(-122.34 -113.364)"/>
        </g>
        <g id="Group_2921" class="cls-1" data-name="Group 2921">
            <path id="Path_416" d="M173.928 176.4l-2.528 9.311h3.392l2.528-9.311z" class="cls-3" data-name="Path 416" transform="translate(-116.56 -119.96)"/>
        </g>
        <g id="Group_2922" class="cls-1" data-name="Group 2922">
            <path id="Path_417" d="M188.228 166.7l-3.328 12.414h3.36l3.36-12.414z" class="cls-3" data-name="Path 417" transform="translate(-125.741 -113.364)"/>
        </g>
        <g id="Group_2923" class="cls-1" data-name="Group 2923">
            <path id="Path_418" d="M201.66 166.7l-3.36 12.414h3.36l3.36-12.414z" class="cls-3" data-name="Path 418" transform="translate(-134.853 -113.364)"/>
        </g>
        <g id="Group_2924" class="cls-1" data-name="Group 2924">
            <path id="Path_419" d="M219.452 175.6a6.677 6.677 0 0 0-1.6 0 4.685 4.685 0 0 0-2.852 1.086 3.744 3.744 0 0 0-1.216 2.24 1.917 1.917 0 0 0 1.376 2.208l1.92.736.1.032.064.032.1.1c.224.192.256.48.064.864a1.055 1.055 0 0 1-.864.576c-.768.1-1.056-.192-.864-.992l.064-.224.032-.064h-3.04a.593.593 0 0 0-.064.224c-.416 1.824.352 2.72 2.464 2.912.224 0 .416.032.64.032 2.464.032 4-.832 4.767-2.4a5.811 5.811 0 0 0 .352-.96c.224-1.28-.1-1.952-1.088-2.3l-2.176-.8-.1-.032-.128-.064c-.352-.16-.416-.352-.288-.736a.906.906 0 0 1 .832-.608c.736-.064.992.192.832.8l-.064.224-.032.064h2.944l.032-.1.064-.352c.448-1.5-.224-2.272-2.272-2.5" class="cls-3" data-name="Path 419" transform="translate(-144.551 -119.382)"/>
        </g>
        <g id="Group_2925" class="cls-1" data-name="Group 2925">
            <path id="Path_420" d="M251.787 176.523l.672-2.5h4.1l.672-2.464h-4.1l.608-2.24h4.351l.7-2.624h-7.93l-3.36 12.414h8.095l.7-2.592z" class="cls-3" data-name="Path 420" transform="translate(-168.311 -113.364)"/>
        </g>
        <g id="Group_2926" class="cls-1" data-name="Group 2926">
            <path id="Path_421" d="M285.034 177.728c.32-1.568-.512-2.5-2.72-2.112a3.584 3.584 0 0 0-1.824.864 2.442 2.442 0 0 0-.288.288l.256-.928h-3.232l-2.528 9.311h3.36l1.7-6.239c.032-.064.032-.128.064-.192a1.036 1.036 0 0 1 .9-.8c.576-.1.8.128.7.736a.475.475 0 0 0-.032.224l-1.7 6.3h3.36l1.856-6.879c.064-.224.1-.416.128-.576" class="cls-3" data-name="Path 421" transform="translate(-186.809 -119.368)"/>
        </g>
        <g id="Group_2927" class="cls-1" data-name="Group 2927">
            <path id="Path_422" d="M310.473 175.614c-2.048.224-3.551 1.632-4.447 4.671-1.12 4.031 0 5.311 3.935 4.959a4.376 4.376 0 0 0 3.679-2.528 4.445 4.445 0 0 0 .32-.832h-3.136l-.1.384a1.435 1.435 0 0 1-.864 1.12c-.544.16-.96-.032-1.024-.384a1.644 1.644 0 0 1 .032-.544l.416-1.5h4.927s.288-1.088.48-1.888c.544-2.816-.608-3.871-4.223-3.456m1.184 3.36l-.064.288h-1.856l.064-.256c.288-1.056.672-1.472 1.152-1.536a.653.653 0 0 1 .864.608 5.312 5.312 0 0 1-.16.9" class="cls-3" data-name="Path 422" transform="translate(-207.832 -119.366)"/>
        </g>
        <g id="Group_2928" class="cls-1" data-name="Group 2928">
            <path id="Path_423" d="M339.419 175.532a3.67 3.67 0 0 0-2.688 1.312 1.476 1.476 0 0 1-.224.224l.352-1.28h-3.232L331.1 185.1h3.36l1.376-5.087c.288-1.152 1.12-1.7 2.816-1.6h.032c.128 0 .256.032.416.032l.352-1.376.416-1.568a1.968 1.968 0 0 1-.448.032" class="cls-3" data-name="Path 423" transform="translate(-225.163 -119.348)"/>
        </g>
        <g id="Group_2929" class="cls-1" data-name="Group 2929">
            <path id="Path_424" d="M389.035 176.4l-2.624 6.111.608-6.111H383.5l.032.928.224 8.415-.032.32c-.032.192-.256.416-.768.608a1.694 1.694 0 0 1-.64.064h-.64l-.576 2.08 1.5.1c2.24.128 3.264-.48 4.575-2.848l5.279-9.631h-3.423z" class="cls-3" data-name="Path 424" transform="translate(-259.165 -119.96)"/>
        </g>
        <g id="Group_2930" class="cls-1" data-name="Group 2930">
            <path id="Path_425" d="M360.013 175.975l-.352 1.216c-.032-.1-.032-.192-.064-.32-.352-.96-.9-1.248-2.368-1.024a3.513 3.513 0 0 0-2.3 1.44 5.671 5.671 0 0 0-.768 1.312 11.319 11.319 0 0 0-.672 1.856c-.96 3.456.064 4.767 2.112 4.607a3.121 3.121 0 0 0 2.08-1.056c.064-.1.16-.16.224-.256l-.448 1.7c-.192.768-.544 1.056-1.088 1.152a.78.78 0 0 1-.384 0c-.48-.064-.64-.256-.576-.672 0-.032.032-.064.032-.1H352.4a1.507 1.507 0 0 0-.128.544c-.128 1.376.608 1.952 2.816 2.08a10.817 10.817 0 0 0 1.44-.032c2.432-.256 3.68-1.216 4.223-3.264l2.24-8.255-.032-.928zm-1.216 4.671c-.384 1.408-.672 1.792-1.12 2.048-.512.288-.96.1-1.056-.384a16.084 16.084 0 0 1 .256-1.728c.448-1.728.928-2.3 1.408-2.432a.649.649 0 0 1 .864.576 5.893 5.893 0 0 1-.352 1.92m4.191-4.671l.032.928.256-.928z" class="cls-3" data-name="Path 425" transform="translate(-239.551 -119.535)"/>
        </g>
    </g>
</svg>
