<svg xmlns="http://www.w3.org/2000/svg" viewBox="0 0 288.555 40.03">
    <defs>
        <style>
            .cls-1{fill:#fff}
        </style>
    </defs>
    <g id="WhiteHillsHeader" transform="translate(-157 -376.97)">
        <path id="Path_454" d="M437.885 416c-20.036-2.2-30.2-7.5-37.579-11.4-4.506-2.4-8.053-4.2-12.079-4.4-5.177-.2-9.778 1.2-14.667 2.7a91.567 91.567 0 0 1-11.12 2.8 21.718 21.718 0 0 1-6.327-1.4c-7.094-2.9-14-9.4-20.036-15.2-7.094-6.7-13.229-12.6-18.6-12.1-6.711.5-15.914 7.2-25.6 14.2-3.451 2.5-7 5.1-10.545 7.5a52.243 52.243 0 0 1-9.011 5 15.4 15.4 0 0 1-2.78.6 15.712 15.712 0 0 1-3.068 0 28.846 28.846 0 0 1-2.876-.5c-.959-.3-2.013-.6-2.876-.8-5.464-1.6-10.162-3-16.585-1.6a124.034 124.034 0 0 0-14.476 4.8c-8.053 3-16.393 6.1-22.72 6.4-11.408.4-25.98 2.4-38.442 3.4-2.109.2-11.5 1-11.5 1h288.557s-3.164-.5-7.67-1z" class="cls-1" data-name="Path 454"/>
    </g>
</svg>
